<svg width="640" height="480" viewBox="0 0 640 480" fill="none" xmlns="http://www.w3.org/2000/svg">
<rect width="640" height="480" fill="#1D2E5C"/>
<ellipse cx="320" cy="240" rx="213" ry="213.06" fill="white"/>
<path d="M309.044 458.133C292.094 456.983 280.579 455.286 267.292 451.98C210.498 437.848 161.779 401.528 131.893 351.04C118.194 327.897 109.113 303.138 104.611 276.654C103.589 270.639 102.135 258.25 102.135 255.554V253.65L109.231 251.917C138.382 244.8 163.99 239.199 191.809 233.854C216.033 229.2 222.858 228.028 223.016 228.498C223.098 228.744 224.038 230.084 225.104 231.477C234.177 243.332 251.061 245.237 262.611 235.709C266.776 232.274 270.504 226.208 271.406 221.398L271.676 219.96L275.037 219.49C276.886 219.232 284.129 218.182 291.133 217.158C314.233 213.78 346.569 209.652 369.513 207.152L380.002 206.01L380.113 197.489C380.174 192.802 380.133 188.968 380.02 188.968C379.044 188.968 347.001 192.703 334.136 194.317C310.686 197.258 273.749 202.364 270.092 203.17C269.362 203.331 268.906 202.942 267.708 201.137C264.245 195.919 258.082 191.526 252.088 190.002C248.982 189.212 242.966 189.211 239.625 189.999C236.648 190.7 232.785 192.548 229.912 194.643C225.711 197.707 221.61 203.951 220.455 209.042L219.923 211.387L209.26 213.345C174.911 219.654 140.24 226.96 112.055 233.829C106.538 235.173 101.927 236.273 101.809 236.273C101.384 236.273 102.142 222.342 102.949 215.326C107.963 171.736 125.114 132.079 153.487 98.4707C159.21 91.6916 171.723 79.2074 178.567 73.4486C215.276 42.5623 258.409 25.1454 306.165 21.9259C314.975 21.3319 333.558 21.6595 341.952 22.5566C387.683 27.4442 427.989 44.8218 463.095 74.7863C468.138 79.0912 478.607 89.472 483.453 94.9742C492.75 105.529 502.603 119.154 509.183 130.556C513.151 137.432 520.445 152.46 523.143 159.32C525.291 164.781 529.528 177.059 529.528 177.823C529.528 178.003 525.224 178.275 519.964 178.429C504.432 178.883 487.634 179.844 456.887 182.039L450.137 182.52V189.183C450.137 192.848 450.254 196.695 450.396 197.733C450.637 199.495 450.726 199.609 451.733 199.434C453.005 199.214 478.036 197.475 492.712 196.588C504.81 195.856 522.895 195.142 529.373 195.139L533.948 195.138L534.632 198.879C537.346 213.709 538.303 224.34 538.313 239.769C538.324 256.014 537.19 267.954 534.232 282.755C531.927 294.291 528.181 307.848 527.3 307.848C527.051 307.848 523.702 306.029 519.858 303.806C516.013 301.584 506.389 296.14 498.471 291.71C490.552 287.279 477.228 279.796 468.861 275.081L453.648 266.507L452.054 263.866C451.177 262.413 448.099 257.23 445.215 252.348L439.97 243.471L439.494 201.514C439.232 178.437 439.021 155.9 439.024 151.432L439.031 143.308H436.421H433.812L429.029 135.389L424.245 127.471L423.963 113.786L423.68 100.101L414.182 100.211L404.683 100.322L404.819 113.896L404.955 127.471L400.277 135.492L395.599 143.513L392.997 143.637L390.395 143.761L390.687 161.942C390.848 171.942 391.118 194.469 391.287 212.003L391.594 243.883L384.989 255.664L378.385 267.444L375.285 269.268C373.581 270.272 362.098 277.074 349.768 284.386C312.556 306.451 304.289 311.344 284.774 322.855C274.48 328.926 265.838 334.096 265.568 334.343C265.198 334.682 268.048 339.811 277.242 355.359C283.932 366.671 289.462 375.992 289.532 376.071C289.601 376.151 293.233 374.101 297.603 371.516C305.284 366.971 335.07 349.321 360.051 334.512C366.726 330.556 379.035 323.262 387.406 318.303L402.626 309.287L409.825 309.026C413.784 308.882 419.902 308.743 423.419 308.717L429.815 308.67L435.965 312.098C446.263 317.837 505.4 351.11 506.396 351.726C507.552 352.439 507.694 352.143 502.177 360.501C466.819 414.065 408.947 449.624 345.243 456.93C334.332 458.181 317.841 458.729 309.044 458.133ZM411.882 297.691C405.995 296.706 399.694 292.853 396.005 287.982C390.714 280.997 389.28 272.714 391.917 264.367C393.24 260.178 395.368 256.925 399.044 253.471C409.133 243.991 424.664 244.368 434.513 254.329C442.358 262.264 444.133 273.583 439.163 283.983C436.207 290.172 429.17 295.682 422.092 297.35C419.688 297.917 414.304 298.097 411.882 297.691Z" fill="#1D2E5C"/>
</svg>
