<svg width="640" height="480" viewBox="0 0 640 480" fill="none" xmlns="http://www.w3.org/2000/svg">
<rect width="640" height="480" fill="#DC0021"/>
<circle cx="320" cy="240" r="240" fill="white"/>
<g clip-path="url(#clip0_143_8)">
<path fill-rule="evenodd" clip-rule="evenodd" d="M319.998 0C187.444 0 80 107.452 80 240C80 372.548 187.444 480 319.998 480C452.551 480 560 372.548 560 240C560 107.452 452.551 0 319.998 0ZM474.459 350.203C474.459 361.726 465.038 371.147 453.52 371.147H416.456C404.929 371.147 395.507 361.726 395.507 350.203V315.386C395.507 303.868 386.081 294.433 374.563 294.433H342.852C331.334 294.433 321.908 294.497 321.908 294.579C321.908 294.647 312.486 294.711 300.963 294.711H266.273C254.751 294.711 245.329 304.132 245.329 315.655V352.172C245.329 363.695 235.903 373.116 224.385 373.116H187.321C175.799 373.116 166.377 363.695 166.377 352.172V315.113C166.377 303.596 175.799 294.165 187.321 294.165H222.012C233.534 294.165 242.956 284.743 242.956 273.226V236.703C242.956 225.181 242.992 215.759 243.028 215.759C243.056 215.759 243.092 206.333 243.092 194.816V157.757C243.092 146.239 252.514 136.813 264.036 136.813H301.095C312.613 136.813 322.035 146.239 322.035 157.757V194.547C322.035 206.065 331.461 215.487 342.979 215.487H376.801C388.318 215.487 397.745 224.913 397.745 236.431V271.252C397.745 282.775 407.166 292.205 418.684 292.205H453.52C465.038 292.205 474.459 301.627 474.459 313.149V350.203ZM399.818 56.9387C404.379 106.529 408.085 110.231 457.68 114.805C408.085 119.361 404.356 123.39 399.818 172.662C395.303 123.185 391.551 119.361 341.951 114.805C391.551 110.231 395.253 106.529 399.818 56.9387Z" fill="#DC0021"/>
</g>
<defs>
<clipPath id="clip0_143_8">
<rect width="480" height="480" fill="white" transform="translate(80)"/>
</clipPath>
</defs>
</svg>
