<svg width="640" height="480" viewBox="0 0 640 480" fill="none" xmlns="http://www.w3.org/2000/svg">
<rect width="640" height="480" fill="#DC0021"/>
<path fill-rule="evenodd" clip-rule="evenodd" d="M510.762 407.4C510.762 421.669 499.095 433.337 484.831 433.337H438.932C424.657 433.337 412.989 421.669 412.989 407.4V364.283C412.989 350.02 401.316 338.335 387.053 338.335H347.781C333.518 338.335 321.844 338.414 321.844 338.515C321.844 338.6 310.177 338.679 295.907 338.679H252.948C238.678 338.679 227.011 350.346 227.011 364.615V409.839C227.011 424.108 215.337 435.775 201.074 435.775H155.175C140.905 435.775 129.238 424.108 129.238 409.839V363.945C129.238 349.682 140.905 338.003 155.175 338.003H198.134C212.404 338.003 224.071 326.336 224.071 312.072V266.843C224.071 252.574 224.116 240.907 224.161 240.907C224.195 240.907 224.24 229.234 224.24 214.97V169.077C224.24 154.813 235.908 143.14 250.177 143.14H296.071C310.334 143.14 322.002 154.814 322.002 169.077V214.638C322.002 228.901 333.675 240.569 347.939 240.569H389.823C404.087 240.569 415.76 252.242 415.76 266.506V309.628C415.76 323.897 427.428 335.576 441.691 335.576H484.831C499.095 335.576 510.762 347.244 510.762 361.513V407.4ZM418.328 44.2251C423.976 105.637 428.565 110.221 489.984 115.886C428.565 121.528 423.948 126.517 418.328 187.536C412.736 126.264 408.09 121.528 346.666 115.886C408.09 110.221 412.674 105.637 418.328 44.2251Z" fill="white"/>
</svg>
